{
    "asset" : {
        "generator" : "Khronos glTF Blender I/O v1.2.75",
        "version" : "2.0"
    },
    "scene" : 0,
    "scenes" : [
        {
            "name" : "Scene",
            "nodes" : [
                0
            ]
        }
    ],
    "nodes" : [
        {
            "mesh" : 0,
            "name" : "head"
        }
    ],
    "materials" : [
        {
            "doubleSided" : true,
            "emissiveFactor" : [
                0,
                0,
                0
            ],
            "name" : "defaultMat",
            "normalTexture" : {
                "index" : 0,
                "scale" : 0.0010000000474974513,
                "texCoord" : 0
            },
            "pbrMetallicRoughness" : {
                "baseColorTexture" : {
                    "index" : 1,
                    "texCoord" : 0
                },
                "metallicFactor" : 0,
                "roughnessFactor" : 0.925464391708374
            }
        }
    ],
    "meshes" : [
        {
            "name" : "head",
            "primitives" : [
                {
                    "attributes" : {
                        "POSITION" : 0,
                        "NORMAL" : 1,
                        "TEXCOORD_0" : 2
                    },
                    "indices" : 3,
                    "material" : 0
                }
            ]
        }
    ],
    "textures" : [
        {
            "source" : 0
        },
        {
            "source" : 1
        }
    ],
    "images" : [
        {
            "mimeType" : "image/png",
            "name" : "bump-lowRes",
            "uri" : "bump-lowRes.png"
        },
        {
            "mimeType" : "image/jpeg",
            "name" : "lambertian",
            "uri" : "lambertian.jpg"
        }
    ],
    "accessors" : [
        {
            "bufferView" : 0,
            "componentType" : 5126,
            "count" : 9273,
            "max" : [
                1.0446079969406128,
                0.5221781730651855,
                0.2406439483165741
            ],
            "min" : [
                -0.9951956272125244,
                -1.3727234601974487,
                -0.9949631094932556
            ],
            "type" : "VEC3"
        },
        {
            "bufferView" : 1,
            "componentType" : 5126,
            "count" : 9273,
            "type" : "VEC3"
        },
        {
            "bufferView" : 2,
            "componentType" : 5126,
            "count" : 9273,
            "type" : "VEC2"
        },
        {
            "bufferView" : 3,
            "componentType" : 5123,
            "count" : 53052,
            "type" : "SCALAR"
        }
    ],
    "bufferViews" : [
        {
            "buffer" : 0,
            "byteLength" : 111276,
            "byteOffset" : 0
        },
        {
            "buffer" : 0,
            "byteLength" : 111276,
            "byteOffset" : 111276
        },
        {
            "buffer" : 0,
            "byteLength" : 74184,
            "byteOffset" : 222552
        },
        {
            "buffer" : 0,
            "byteLength" : 106104,
            "byteOffset" : 296736
        }
    ],
    "buffers" : [
        {
            "byteLength" : 402840,
            "uri" : "lpshead.bin"
        }
    ]
}